<?xml version="1.0" standalone="no"?>
<!DOCTYPE svg PUBLIC "-//W3C//DTD SVG 20010904//EN"
 "http://www.w3.org/TR/2001/REC-SVG-20010904/DTD/svg10.dtd">
<svg version="1.0" xmlns="http://www.w3.org/2000/svg"
 width="354.000000pt" height="354.000000pt" viewBox="0 0 354.000000 354.000000"
 preserveAspectRatio="xMidYMid meet">
<metadata>
Created by potrace 1.11, written by Peter Selinger 2001-2013
</metadata>
<g transform="translate(0.000000,354.000000) scale(0.100000,-0.100000)"
fill="#000000" stroke="none">
<path d="M2034 3352 c-13 -9 -68 -125 -78 -167 -4 -16 -14 -37 -22 -46 -8 -8
-16 -30 -18 -47 -2 -18 -8 -38 -14 -45 -6 -7 -14 -28 -17 -47 -3 -19 -9 -44
-14 -55 -5 -11 -12 -33 -17 -50 -12 -37 -59 -53 -165 -54 -94 -1 -107 8 -150
109 -17 40 -37 80 -45 87 -8 8 -14 21 -14 28 0 7 -11 27 -25 43 -14 17 -25 34
-25 38 0 5 -11 22 -25 38 -14 16 -25 32 -25 36 0 12 -44 57 -67 69 -38 19 -53
14 -53 -19 0 -28 56 -157 83 -189 10 -12 44 -105 52 -141 1 -3 4 -14 7 -25 27
-83 11 -143 -45 -166 -16 -7 -55 -28 -86 -48 -78 -49 -82 -52 -129 -86 -23
-16 -60 -41 -83 -55 -51 -30 -274 -250 -310 -305 -80 -124 -99 -157 -124 -211
-33 -72 -88 -238 -106 -319 -21 -97 -17 -409 6 -505 3 -14 11 -45 17 -70 36
-153 107 -317 180 -415 48 -66 275 -305 289 -305 4 0 37 -22 73 -49 111 -84
267 -145 488 -190 71 -15 122 -19 218 -16 291 9 428 54 733 240 121 74 261
228 353 390 70 122 158 368 170 475 7 59 6 332 -1 385 -13 100 -55 244 -105
360 -42 98 -152 247 -265 359 -198 196 -324 292 -490 371 -58 28 -65 31 -84
34 -4 0 -25 17 -46 37 l-38 35 7 77 c9 111 35 255 57 320 24 71 24 76 -6 90
-30 14 -27 14 -41 4z"/>
</g>
</svg>
